<svg xmlns="http://www.w3.org/2000/svg" viewBox="0 0 116 116">
  <g transform="translate(0 25)">
    <path
      d="M 28.773 16.257 C 12.973 25.191, 0.046 32.725, 0.046 33 C 0.045 33.275, 13.085 40.862, 29.024 49.859 L 58.003 66.218 87.501 49.508 C 103.726 40.317, 117 32.366, 117 31.840 C 117 31.313, 116.553 31.158, 116.006 31.496 C 115.459 31.834, 102.707 25.125, 87.668 16.586 C 72.629 8.048, 59.689 0.826, 58.912 0.538 C 58.136 0.250, 44.573 7.324, 28.773 16.257 M 35.250 20.262 C 23.563 26.934, 14 32.666, 14 33 C 14 33.753, 56.673 58, 58 58 C 59.326 58, 102 33.754, 102 33 C 102 32.107, 59.178 7.988, 57.731 8.066 C 57.054 8.102, 46.938 13.591, 35.250 20.262 M 42 24.500 C 42 25.586, 43.116 26, 46.042 26 L 50.084 26 49.792 33.739 C 49.552 40.112, 49.197 41.536, 47.786 41.806 C 46.640 42.024, 45.858 41.282, 45.427 39.566 C 45.073 38.155, 44.368 37, 43.860 37 C 42.311 37, 41.784 39.727, 42.922 41.854 C 44.465 44.738, 47.661 45.452, 50.549 43.560 C 52.807 42.081, 53 41.333, 53 34.084 C 53 28.011, 53.342 26.083, 54.500 25.638 C 58.151 24.237, 55.572 23, 49 23 C 43.444 23, 42 23.310, 42 24.500 M 65.750 29.080 C 62.718 30.846, 63.581 34.820, 67.500 37.133 C 69.425 38.268, 71 39.828, 71 40.599 C 71 42.810, 67.401 42.232, 65.715 39.750 C 64.311 37.685, 64.127 37.647, 63.471 39.287 C 62.591 41.491, 65.509 45, 68.221 45 C 74.656 45, 76.109 39.177, 70.500 35.867 C 66.911 33.750, 65.799 31, 68.531 31 C 69.374 31, 70.322 31.675, 70.638 32.500 C 71.371 34.410, 74 34.465, 74 32.571 C 74 30.612, 71.219 27.993, 69.179 28.030 C 68.255 28.047, 66.713 28.519, 65.750 29.080 M -0 33 C -0 33.733, 0.300 34.033, 0.667 33.667 C 1.033 33.300, 1.033 32.700, 0.667 32.333 C 0.300 31.967, -0 32.267, -0 33 M 56 42.441 C 56 43.234, 56.359 44.104, 56.798 44.375 C 58.077 45.166, 60.323 43.332, 59.569 42.112 C 58.577 40.506, 56 40.744, 56 42.441"
      fill="#e40012"
      fill-rule="evenodd"
    />
  </g>
</svg>
