<svg xmlns="http://www.w3.org/2000/svg" width="225" height="40" viewBox="0 0 225 40" version="1.1">
	<path d="M 72 2 C 72 3.111, 71.333 4, 70.500 4 C 69.675 4, 69 4.450, 69 5 C 69 5.550, 69.675 6, 70.500 6 C 72.636 6, 72.424 10.622, 70.250 11.464 C 68.583 12.111, 68.583 12.204, 70.250 13.432 C 72.113 14.804, 72.678 19, 71 19 C 70.450 19, 70 19.481, 70 20.070 C 70 20.658, 71.013 20.995, 72.250 20.820 C 74.075 20.560, 74.560 19.765, 74.819 16.610 C 74.994 14.470, 75.763 12.094, 76.527 11.330 C 77.714 10.143, 78.143 10.376, 79.459 12.920 C 81.469 16.808, 81.454 16.877, 78.337 18.062 C 76.384 18.805, 75.970 19.370, 76.786 20.186 C 77.601 21.001, 78.577 20.852, 80.449 19.626 C 82.805 18.082, 83.189 18.078, 85.468 19.571 C 86.825 20.460, 88.504 20.999, 89.198 20.767 C 89.976 20.508, 89.437 19.677, 87.790 18.598 L 85.121 16.849 87.057 13.675 C 89.528 9.622, 89.512 8, 87 8 C 85.889 8, 85 7.333, 85 6.500 C 85 5.567, 85.944 5, 87.500 5 C 88.875 5, 90 4.550, 90 4 C 90 3.450, 88.875 3, 87.500 3 C 85.944 3, 85 2.433, 85 1.500 C 85 0.675, 84.325 0, 83.500 0 C 82.675 0, 82 0.675, 82 1.500 C 82 2.325, 81.137 3, 80.082 3 C 79.027 3, 77.452 3.273, 76.582 3.607 C 75.448 4.042, 75 3.617, 75 2.107 C 75 0.901, 74.359 0, 73.500 0 C 72.667 0, 72 0.889, 72 2 M 145.500 1 C 145.160 1.550, 143.109 2, 140.941 2 C 138.773 2, 137 2.450, 137 3 C 137 3.550, 138.350 4, 140 4 C 141.650 4, 143 4.434, 143 4.965 C 143 5.496, 141.537 7.601, 139.750 9.642 C 136.802 13.009, 136.709 13.300, 138.750 12.771 C 140.693 12.267, 141 12.576, 141 15.035 C 141 16.601, 140.543 18.165, 139.984 18.510 C 138.833 19.221, 139.616 21, 141.080 21 C 141.610 21, 142.555 19.875, 143.182 18.500 C 144.169 16.335, 144.969 16, 149.161 16 C 152.796 16, 154 16.373, 154 17.500 C 154 18.333, 153.111 19, 152 19 C 150.900 19, 150 19.450, 150 20 C 150 20.550, 151.350 21, 153 21 L 156 21 156 13.500 L 156 6 151 6 C 148.250 6, 146 5.550, 146 5 C 146 4.444, 148.667 4, 152 4 C 155.333 4, 158 3.556, 158 3 C 158 2.450, 155.750 2, 153 2 C 150.250 2, 148 1.550, 148 1 C 148 0.450, 147.577 0, 147.059 0 C 146.541 0, 145.840 0.450, 145.500 1 M 2.703 1.631 C 2.316 2.017, 2 3.800, 2 5.593 C 2 7.857, 2.535 8.993, 3.750 9.311 C 5.417 9.746, 5.417 9.774, 3.750 9.884 C 2.360 9.976, 2 10.925, 2 14.500 C 2 16.975, 1.966 19.326, 1.925 19.725 C 1.716 21.744, 3.743 20.677, 4.695 18.267 L 5.787 15.500 5.894 18.664 C 5.992 21.593, 6.199 21.774, 8.685 21.109 C 11.661 20.313, 13.073 18, 10.583 18 C 9.713 18, 9 17.550, 9 17 C 9 16.450, 9.927 16, 11.059 16 C 12.191 16, 12.852 16.430, 12.527 16.956 C 11.790 18.149, 15.692 20.725, 18.907 21.168 C 20.231 21.351, 21.506 20.938, 21.740 20.250 C 21.975 19.562, 21.529 19, 20.750 19 C 19.971 19, 19.333 18.325, 19.333 17.500 C 19.333 16.675, 19.933 16, 20.667 16 C 21.400 16, 22 15.550, 22 15 C 22 14.450, 21.520 14, 20.933 14 C 20.320 14, 20.136 13.147, 20.500 12 C 20.937 10.623, 20.680 10, 19.674 10 C 17.928 10, 16.685 7.313, 18.044 6.473 C 18.570 6.148, 19 6.584, 19 7.441 C 19 8.298, 19.477 9, 20.060 9 C 20.674 9, 20.990 7.421, 20.810 5.250 L 20.500 1.500 11.953 1.214 C 7.252 1.057, 3.089 1.244, 2.703 1.631 M 28.353 2.092 L 25.205 3.004 24.792 11.752 C 24.565 16.563, 24.527 20.695, 24.707 20.933 C 25.615 22.138, 27.286 18.645, 27.743 14.587 C 28.462 8.213, 30 8.835, 30 15.500 C 30 20.603, 30.169 21, 32.345 21 C 33.635 21, 35.511 20.093, 36.514 18.984 L 38.338 16.969 40.483 18.984 C 43.892 22.187, 45.496 21.378, 42.589 17.923 C 39.752 14.552, 39.229 12, 41.375 12 C 42.532 12, 44 8.016, 44 4.875 C 44 4.394, 42.650 4, 41 4 C 39 4, 38 3.500, 38 2.500 C 38 -0.196, 36.311 0.925, 35.363 4.250 C 34.596 6.941, 33.883 7.554, 31.218 7.813 C 26.953 8.229, 26.850 5.596, 31.075 4.124 C 32.766 3.534, 33.865 2.590, 33.516 2.026 C 32.791 0.853, 32.621 0.856, 28.353 2.092 M 48.750 1.641 C 46.359 2.332, 46.536 4, 49 4 C 50.100 4, 51 4.450, 51 5 C 51 5.550, 50.100 6, 49 6 C 47.900 6, 47 6.450, 47 7 C 47 7.550, 47.675 8, 48.500 8 C 50.410 8, 50.384 8.541, 48.303 12.065 C 46.344 15.380, 47.302 17.304, 49.479 14.427 C 50.830 12.640, 50.939 12.810, 50.968 16.750 C 51.012 22.609, 52.984 22.139, 53.068 16.250 C 53.127 12.096, 53.272 11.783, 54.220 13.750 C 55.025 15.419, 56.170 16, 58.653 16 C 61.556 16, 62 16.331, 62 18.500 C 62 20.056, 62.567 21, 63.500 21 C 64.490 21, 65 20.009, 65 18.083 C 65 16.479, 65.563 14.904, 66.250 14.583 C 67.250 14.117, 67.250 13.883, 66.250 13.417 C 65.457 13.046, 65 10.672, 65 6.917 C 65 2.324, 64.664 1, 63.500 1 C 62.631 1, 62 1.906, 62 3.155 C 62 5.218, 61.918 5.235, 60.078 3.570 C 58.113 1.792, 51.893 0.733, 48.750 1.641 M 92.786 10.250 C 92.370 19.551, 93.424 24.131, 94.613 18.187 C 94.963 16.434, 95.700 15, 96.250 15 C 96.835 15, 96.992 16.288, 96.629 18.105 L 96.008 21.209 100.254 20.596 C 106.253 19.731, 107.186 19.720, 110 20.488 L 112.500 21.170 110.307 19.335 C 108.311 17.665, 108.241 17.275, 109.522 15 C 111.969 10.652, 111.445 10, 105.500 10 C 102.475 10, 100 9.564, 100 9.031 C 100 8.499, 100.677 8.322, 101.503 8.640 C 102.580 9.053, 103.183 8.335, 103.628 6.108 C 104.439 2.056, 107 1.974, 107 6 C 107 8.533, 107.389 9, 109.500 9 C 110.875 9, 112 8.550, 112 8 C 112 7.450, 111.550 7, 111 7 C 110.450 7, 110 5.650, 110 4 C 110 1.167, 109.778 1, 106 1 C 102.426 1, 102 1.260, 102 3.441 C 102 4.784, 101.550 6.160, 101 6.500 C 100.417 6.861, 100 5.844, 100 4.059 C 100 1.247, 99.726 1, 96.599 1 L 93.199 1 92.786 10.250 M 116.979 5.641 C 115.186 8.997, 114.846 10.404, 115.750 10.724 C 116.520 10.997, 117 13.053, 117 16.083 C 117 20.812, 117.108 21, 119.826 21 C 123.105 21, 126.536 17.773, 127.534 13.750 C 128.555 9.638, 131 10.233, 131 14.594 C 131 17.346, 130.532 18.310, 129 18.710 C 125.995 19.496, 126.595 21.179, 129.750 20.816 C 132.255 20.528, 132.556 20.042, 133.128 15.351 C 133.474 12.519, 134.081 9.678, 134.476 9.038 C 134.872 8.398, 134.545 7.115, 133.750 6.187 C 132.955 5.259, 132.025 3.712, 131.683 2.750 C 131.257 1.547, 129.997 1, 127.653 1 C 124.801 1, 124.038 1.495, 122.991 4.021 C 121.141 8.489, 119.756 8.815, 120.548 4.598 C 121.477 -0.356, 119.943 0.092, 116.979 5.641 M 161 11 C 161 17, 161.400 21, 162 21 C 162.550 21, 163 19.952, 163 18.671 C 163 16.898, 163.538 16.360, 165.250 16.421 C 167.254 16.491, 167.477 16.063, 167.292 12.500 C 167.178 10.300, 167.009 8.050, 166.917 7.500 C 166.824 6.950, 167.079 5.263, 167.483 3.750 C 168.184 1.122, 168.056 1, 164.608 1 L 161 1 161 11 M 169 11 C 169 21.399, 169.275 21.983, 173.418 20.393 C 175.723 19.509, 175.358 17.673, 173 18.290 C 171.252 18.747, 171 18.320, 171 14.906 L 171 11 175.500 11 L 180 11 180 6 L 180 1 174.500 1 L 169 1 169 11 M 187.122 4.250 C 185.980 6.038, 184.489 8.266, 183.808 9.202 C 181.974 11.725, 183.660 12.617, 186.096 10.413 C 188.316 8.404, 191 3.827, 191 2.050 C 191 0.005, 189.170 1.043, 187.122 4.250 M 193 1.500 C 193 1.775, 193.691 2.788, 194.537 3.750 C 195.382 4.713, 197.244 6.990, 198.676 8.810 C 200.405 11.008, 201.614 11.786, 202.275 11.125 C 202.937 10.463, 202.714 9.571, 201.612 8.470 C 200.700 7.557, 199.277 5.503, 198.451 3.905 C 197.562 2.187, 196.142 1, 194.974 1 C 193.888 1, 193 1.225, 193 1.500 M 205 2 C 205 2.593, 208.667 3, 214 3 L 223 3 223 11 C 223 18.867, 222.958 19, 220.500 19 C 219.125 19, 218 19.479, 218 20.063 C 218 20.661, 219.424 20.989, 221.250 20.813 L 224.500 20.500 224.786 10.750 L 225.072 1 215.036 1 C 209.012 1, 205 1.400, 205 2 M 124.771 5.630 L 123.042 9 127.547 9 L 132.051 9 130.563 6.121 C 128.391 1.922, 126.745 1.782, 124.771 5.630 M 53.667 3.667 C 52.537 4.796, 52.927 6, 54.423 6 C 55.206 6, 57.231 7.165, 58.923 8.589 C 61.385 10.660, 62 10.850, 62 9.541 C 62 7.799, 57.232 3.085, 55.417 3.032 C 54.821 3.014, 54.033 3.300, 53.667 3.667 M 95 4 C 95 4.550, 95.450 5, 96 5 C 96.550 5, 97 4.550, 97 4 C 97 3.450, 96.550 3, 96 3 C 95.450 3, 95 3.450, 95 4 M 163 9.083 C 163 13.528, 163.337 15.043, 164.250 14.708 C 164.938 14.456, 165.311 13.631, 165.079 12.875 C 164.847 12.119, 164.622 9.588, 164.579 7.250 C 164.455 0.588, 163 2.278, 163 9.083 M 171 4 C 171 4.550, 172.350 5, 174 5 C 175.650 5, 177 4.550, 177 4 C 177 3.450, 175.650 3, 174 3 C 172.350 3, 171 3.450, 171 4 M 76.250 5.662 C 75.563 5.940, 75 6.852, 75 7.690 C 75 8.669, 75.566 8.997, 76.582 8.607 C 77.452 8.273, 79.027 8, 80.082 8 C 81.137 8, 82 7.325, 82 6.500 C 82 5.030, 78.927 4.582, 76.250 5.662 M 206 6 C 206 6.578, 209.167 7, 213.500 7 C 217.833 7, 221 6.578, 221 6 C 221 5.422, 217.833 5, 213.500 5 C 209.167 5, 206 5.422, 206 6 M 4 7.031 C 4 7.564, 4.675 8, 5.500 8 C 7.421 8, 7.421 7.375, 5.500 6.638 C 4.675 6.322, 4 6.499, 4 7.031 M 37 7 C 37 7.550, 37.638 8, 38.417 8 C 39.196 8, 40.060 8.563, 40.338 9.250 C 40.615 9.938, 40.878 9.488, 40.921 8.250 C 40.978 6.640, 40.431 6, 39 6 C 37.900 6, 37 6.450, 37 7 M 13 7.500 C 13 7.775, 13.225 8, 13.500 8 C 13.775 8, 14 7.775, 14 7.500 C 14 7.225, 13.775 7, 13.500 7 C 13.225 7, 13 7.225, 13 7.500 M 171 8 C 171 8.550, 172.350 9, 174 9 C 175.650 9, 177 8.550, 177 8 C 177 7.450, 175.650 7, 174 7 C 172.350 7, 171 7.450, 171 8 M 189.238 11.750 C 188.051 14.363, 186.515 17.266, 185.825 18.202 C 183.846 20.887, 185.466 21.365, 192.112 20.058 C 196.930 19.110, 198.449 19.108, 199.031 20.050 C 199.441 20.713, 200.278 20.946, 200.891 20.567 C 202.115 19.811, 200.989 16.930, 198.238 13.774 C 196.353 11.612, 194.655 12.486, 195.969 14.941 C 196.793 16.481, 196.465 16.857, 193.846 17.381 C 188.903 18.369, 188.839 18.251, 191.483 13.033 C 194.387 7.302, 194.448 7, 192.698 7 C 191.983 7, 190.425 9.137, 189.238 11.750 M 54.671 11.020 C 55.713 12.784, 57.018 13.823, 57.809 13.520 C 58.554 13.234, 59.836 13, 60.659 13 C 61.591 13, 61.037 12.060, 59.182 10.500 C 57.548 9.125, 55.463 8, 54.549 8 C 53.026 8, 53.037 8.253, 54.671 11.020 M 95 10 C 95 11.867, 95.267 12.133, 96.200 11.200 C 97.133 10.267, 97.133 9.733, 96.200 8.800 C 95.267 7.867, 95 8.133, 95 10 M 144 9 C 144 9.550, 146.250 10, 149 10 C 151.750 10, 154 9.550, 154 9 C 154 8.450, 151.750 8, 149 8 C 146.250 8, 144 8.450, 144 9 M 9.333 9.667 C 9.700 10.033, 10.300 10.033, 10.667 9.667 C 11.033 9.300, 10.733 9, 10 9 C 9.267 9, 8.967 9.300, 9.333 9.667 M 12.813 9.683 C 13.534 9.972, 14.397 9.936, 14.729 9.604 C 15.061 9.272, 14.471 9.036, 13.417 9.079 C 12.252 9.127, 12.015 9.364, 12.813 9.683 M 36.136 9.817 C 36.049 10.664, 35.286 10.908, 34 10.500 C 32.178 9.922, 32 10.320, 32 14.992 C 32 18.179, 32.381 19.883, 33.007 19.496 C 34.842 18.362, 37.128 12.900, 36.697 10.682 C 36.463 9.482, 36.211 9.093, 36.136 9.817 M 207 13 L 207 17 213.500 17 L 220 17 220 13 L 220 9 213.500 9 L 207 9 207 13 M 82 12 C 82.589 13.100, 83.264 14, 83.500 14 C 83.736 14, 84.411 13.100, 85 12 C 85.941 10.241, 85.760 10, 83.500 10 C 81.240 10, 81.059 10.241, 82 12 M 120.032 15.143 L 120.063 20.500 122.532 17.694 C 124.964 14.930, 125.874 11, 124.082 11 C 123.577 11, 122.452 10.727, 121.582 10.393 C 120.259 9.885, 120.005 10.662, 120.032 15.143 M 210 13 C 210 14.619, 210.667 15, 213.500 15 C 216.333 15, 217 14.619, 217 13 C 217 11.381, 216.333 11, 213.500 11 C 210.667 11, 210 11.381, 210 13 M 100.022 15.758 C 100.001 19.769, 100.117 19.944, 102 18.768 C 104.440 17.244, 104.440 17.119, 102 14 L 100.044 11.500 100.022 15.758 M 104.638 13.500 C 104.955 14.325, 105.568 15, 106 15 C 106.432 15, 107.045 14.325, 107.362 13.500 C 107.751 12.485, 107.311 12, 106 12 C 104.689 12, 104.249 12.485, 104.638 13.500 M 144 13 C 144 13.550, 146.250 14, 149 14 C 151.750 14, 154 13.550, 154 13 C 154 12.450, 151.750 12, 149 12 C 146.250 12, 144 12.450, 144 13 M 173 13.423 C 173 15.488, 177.906 21, 179.744 21 C 181.110 21, 181.090 20.757, 179.587 19.096 C 178.135 17.492, 178.065 16.868, 179.144 15.141 C 180.753 12.565, 179.605 11.256, 177.362 13.107 C 176.052 14.189, 175.581 14.221, 175.254 13.250 C 174.678 11.539, 173 11.668, 173 13.423 M 14.473 16.956 C 14.798 17.482, 15.725 17.659, 16.532 17.349 C 18.599 16.556, 18.356 16, 15.941 16 C 14.809 16, 14.148 16.430, 14.473 16.956 M 0 29 C 0 29.550, 0.675 30, 1.500 30 C 2.583 30, 3 31.111, 3 34 C 3 36.889, 3.417 38, 4.500 38 C 5.583 38, 6 36.889, 6 34 C 6 31.111, 6.417 30, 7.500 30 C 8.325 30, 9 29.550, 9 29 C 9 28.450, 6.975 28, 4.500 28 C 2.025 28, 0 28.450, 0 29 M 10.594 32.678 C 8.663 38.346, 8.669 38, 10.500 38 C 11.325 38, 12 37.550, 12 37 C 12 36.450, 12.900 36, 14 36 C 15.100 36, 16 36.450, 16 37 C 16 37.550, 16.675 38, 17.500 38 C 19.331 38, 19.337 38.346, 17.406 32.678 C 16.294 29.415, 15.264 28, 14 28 C 12.736 28, 11.706 29.415, 10.594 32.678 M 20 33 C 20 35.750, 20.450 38, 21 38 C 21.550 38, 22.014 36.763, 22.032 35.250 L 22.063 32.500 24.115 35.250 C 27.354 39.591, 29 38.833, 29 33 C 29 29.222, 28.633 28, 27.500 28 C 26.540 28, 25.986 28.990, 25.960 30.750 L 25.920 33.500 24.428 30.750 C 21.967 26.213, 20 27.212, 20 33 M 31.200 29.200 C 30.540 29.860, 30 31.570, 30 33 C 30 36.171, 31.674 38, 34.578 38 C 37.215 38, 39.647 35.518, 38.005 34.503 C 37.404 34.132, 36.277 34.355, 35.500 35 C 33.732 36.467, 32 35.477, 32 33 C 32 30.523, 33.732 29.533, 35.500 31 C 37.453 32.621, 39.485 31.290, 37.926 29.411 C 36.494 27.686, 32.829 27.571, 31.200 29.200 M 40 33 C 40 36.778, 40.367 38, 41.500 38 C 42.333 38, 43 37.111, 43 36 C 43 34.889, 43.667 34, 44.500 34 C 45.333 34, 46 34.889, 46 36 C 46 37.111, 46.667 38, 47.500 38 C 48.633 38, 49 36.778, 49 33 C 49 29.222, 48.633 28, 47.500 28 C 46.667 28, 46 28.889, 46 30 C 46 31.111, 45.333 32, 44.500 32 C 43.667 32, 43 31.111, 43 30 C 43 28.889, 42.333 28, 41.500 28 C 40.367 28, 40 29.222, 40 33 M 50 33 C 50 36.778, 50.367 38, 51.500 38 C 52.633 38, 53 36.778, 53 33 C 53 29.222, 52.633 28, 51.500 28 C 50.367 28, 50 29.222, 50 33 M 54 33 C 54 35.750, 54.450 38, 55 38 C 55.550 38, 56.014 36.763, 56.032 35.250 L 56.063 32.500 58.115 35.250 C 61.354 39.591, 63 38.833, 63 33 C 63 29.222, 62.633 28, 61.500 28 C 60.540 28, 59.986 28.990, 59.960 30.750 L 59.920 33.500 58.428 30.750 C 55.967 26.213, 54 27.212, 54 33 M 67 29 C 67 29.550, 67.675 30, 68.500 30 C 69.583 30, 70 31.111, 70 34 C 70 36.889, 70.417 38, 71.500 38 C 72.583 38, 73 36.889, 73 34 C 73 31.111, 73.417 30, 74.500 30 C 75.583 30, 76 31.111, 76 34 L 76 38 80 38 C 82.200 38, 84 37.550, 84 37 C 84 36.450, 82.875 36, 81.500 36 C 80.125 36, 79 35.550, 79 35 C 79 34.450, 80.125 34, 81.500 34 C 82.875 34, 84 33.550, 84 33 C 84 32.450, 82.875 32, 81.500 32 C 80.125 32, 79 31.550, 79 31 C 79 30.450, 80.125 30, 81.500 30 C 82.875 30, 84 29.550, 84 29 C 84 28.412, 80.500 28, 75.500 28 C 70.500 28, 67 28.412, 67 29 M 86.557 30.223 C 84.591 33.029, 84.594 34.451, 86.571 36.429 C 88.525 38.382, 92.369 38.466, 93.926 36.589 C 95.485 34.710, 93.453 33.379, 91.500 35 C 89.732 36.467, 88 35.477, 88 33 C 88 30.523, 89.732 29.533, 91.500 31 C 93.453 32.621, 95.485 31.290, 93.926 29.411 C 92.165 27.289, 88.314 27.714, 86.557 30.223 M 96 33 C 96 35.750, 96.450 38, 97 38 C 97.550 38, 98 37.100, 98 36 C 98 34.667, 98.667 34, 100 34 C 101.333 34, 102 34.667, 102 36 C 102 37.100, 102.450 38, 103 38 C 103.550 38, 104 35.750, 104 33 C 104 30.250, 103.550 28, 103 28 C 102.450 28, 102 28.900, 102 30 C 102 31.333, 101.333 32, 100 32 C 98.667 32, 98 31.333, 98 30 C 98 28.900, 97.550 28, 97 28 C 96.450 28, 96 30.250, 96 33 M 106 33 C 106 35.750, 106.450 38, 107 38 C 107.550 38, 108.014 36.763, 108.032 35.250 L 108.063 32.500 110.115 35.250 C 113.354 39.591, 115 38.833, 115 33 C 115 29.222, 114.633 28, 113.500 28 C 112.540 28, 111.986 28.990, 111.960 30.750 L 111.920 33.500 110.428 30.750 C 107.967 26.213, 106 27.212, 106 33 M 117.200 29.200 C 115.653 30.747, 115.653 35.253, 117.200 36.800 C 117.860 37.460, 119.670 38, 121.221 38 C 123.261 38, 124.359 37.307, 125.182 35.500 C 126.885 31.762, 124.899 28, 121.221 28 C 119.670 28, 117.860 28.540, 117.200 29.200 M 127 33 L 127 38 131 38 C 133.200 38, 135 37.550, 135 37 C 135 36.450, 133.875 36, 132.500 36 C 130.250 36, 130 35.600, 130 32 C 130 29.111, 129.583 28, 128.500 28 C 127.367 28, 127 29.222, 127 33 M 135.818 30.500 C 134.115 34.238, 136.101 38, 139.779 38 C 143.295 38, 145 36.367, 145 33 C 145 29.633, 143.295 28, 139.779 28 C 137.739 28, 136.641 28.693, 135.818 30.500 M 146.950 30.093 C 144.417 34.827, 148.551 39.229, 153.928 37.523 C 156.993 36.550, 156.657 33, 153.500 33 C 150.871 33, 150.123 34.436, 152.250 35.399 C 152.938 35.710, 152.605 35.855, 151.511 35.721 C 149.280 35.447, 148.255 32.345, 149.864 30.736 C 150.599 30.001, 151.366 30.059, 152.414 30.928 C 154.430 32.601, 156.524 31.336, 154.926 29.411 C 153.115 27.228, 148.261 27.643, 146.950 30.093 M 157.932 30.904 C 159.069 32.502, 160 34.752, 160 35.904 C 160 37.057, 160.450 38, 161 38 C 161.550 38, 162 37.266, 162 36.368 C 162 35.470, 162.937 33.220, 164.082 31.368 C 165.803 28.582, 165.898 28, 164.631 28 C 163.789 28, 162.706 28.703, 162.225 29.563 C 161.431 30.981, 161.229 30.981, 160.052 29.563 C 159.339 28.703, 158.105 28, 157.309 28 C 156.191 28, 156.333 28.658, 157.932 30.904 M 170.818 30.500 C 169.061 34.357, 171.097 38, 175.010 38 C 176.839 38, 178.300 37.381, 178.655 36.457 C 179.481 34.304, 178.338 33.475, 176.568 34.944 C 174.740 36.460, 173 35.512, 173 33 C 173 30.488, 174.740 29.540, 176.568 31.056 C 178.338 32.525, 179.481 31.696, 178.655 29.543 C 178.300 28.619, 176.839 28, 175.010 28 C 172.724 28, 171.671 28.628, 170.818 30.500 M 180.818 30.500 C 179.115 34.238, 181.101 38, 184.779 38 C 188.295 38, 190 36.367, 190 33 C 190 29.633, 188.295 28, 184.779 28 C 182.739 28, 181.641 28.693, 180.818 30.500 M 199 33 L 199 38 202.500 38 C 204.425 38, 206 37.550, 206 37 C 206 36.450, 204.875 36, 203.500 36 C 201.250 36, 201 35.600, 201 32 C 201 29.800, 200.550 28, 200 28 C 199.450 28, 199 30.250, 199 33 M 207 29 C 207 29.550, 207.675 30, 208.500 30 C 209.583 30, 210 31.111, 210 34 C 210 36.200, 210.450 38, 211 38 C 211.550 38, 212 36.200, 212 34 C 212 31.111, 212.417 30, 213.500 30 C 214.325 30, 215 29.550, 215 29 C 215 28.450, 213.200 28, 211 28 C 208.800 28, 207 28.450, 207 29 M 216 33 C 216 37.990, 216.007 38, 219.300 38 C 223.275 38, 225 36.486, 225 33 C 225 29.514, 223.275 28, 219.300 28 C 216.007 28, 216 28.010, 216 33 M 118.390 31.426 C 117.480 33.797, 118.767 36.191, 120.747 35.810 C 121.854 35.597, 122.500 34.561, 122.500 33 C 122.500 30.149, 119.344 28.941, 118.390 31.426 M 138.667 30.667 C 137.617 31.717, 137.888 34.813, 139.096 35.559 C 139.699 35.932, 140.898 35.531, 141.760 34.669 C 143.052 33.377, 143.102 32.827, 142.042 31.550 C 140.648 29.870, 139.709 29.625, 138.667 30.667 M 183.667 30.667 C 182.617 31.717, 182.888 34.813, 184.096 35.559 C 184.699 35.932, 185.898 35.531, 186.760 34.669 C 188.052 33.377, 188.102 32.827, 187.042 31.550 C 185.648 29.870, 184.709 29.625, 183.667 30.667 M 218 33 C 218 35.459, 218.383 36.073, 219.750 35.810 C 220.854 35.597, 221.500 34.560, 221.500 33 C 221.500 31.440, 220.854 30.403, 219.750 30.190 C 218.383 29.927, 218 30.541, 218 33 M 13 33 C 13 33.550, 13.450 34, 14 34 C 14.550 34, 15 33.550, 15 33 C 15 32.450, 14.550 32, 14 32 C 13.450 32, 13 32.450, 13 33 M 191 37 C 191 37.550, 191.675 38, 192.500 38 C 193.325 38, 194 37.550, 194 37 C 194 36.450, 193.325 36, 192.500 36 C 191.675 36, 191 36.450, 191 37 M 195.276 38.012 C 195.453 40.362, 197.351 40.105, 197.823 37.667 C 198.010 36.704, 197.509 36, 196.635 36 C 195.738 36, 195.186 36.817, 195.276 38.012" stroke="none" fill="#e40012" fill-rule="evenodd"/>
</svg>